# Blender v2.71 (sub 0) OBJ File: 'cube.blend'
# www.blender.org
o Cube
v 1.000000 -1.000000 -1.000000
v 1.000000 -1.000000 1.000000
v -1.000000 -1.000000 1.000000
v -1.000000 -1.000000 -1.000000
v 1.000000 1.000000 -0.999999
v 0.999999 1.000000 1.000001
v -1.000000 1.000000 1.000000
v -1.000000 1.000000 -1.000000
vt 0.335572 0.332985
vt 0.668828 0.332985
vt 0.668829 0.666241
vt 0.335572 0.666473
vt 0.668828 0.666472
vt 0.668829 0.999729
vt 0.335572 0.666242
vt 0.002316 0.666242
vt 0.002316 0.332985
vt 1.002085 0.999729
vt 1.002085 0.332985
vt 1.002085 0.666241
vt 0.002316 0.999729
vt 0.002316 0.666473
vt 0.335572 0.999729
vt 1.002085 0.666472
vn 0.000000 -1.000000 0.000000
vn 0.000000 1.000000 0.000000
vn 1.000000 -0.000000 0.000000
vn -0.000000 -0.000000 1.000000
vn -1.000000 -0.000000 -0.000000
vn 0.000000 0.000000 -1.000000
s off
f 2/1/1 3/2/1 4/3/1
f 8/4/2 7/5/2 6/6/2
f 1/7/3 5/8/3 6/9/3
f 2/10/4 6/6/4 7/5/4
f 7/11/5 8/12/5 4/3/5
f 1/13/6 4/14/6 8/4/6
f 1/7/1 2/1/1 4/3/1
f 5/15/2 8/4/2 6/6/2
f 2/1/3 1/7/3 6/9/3
f 3/16/4 2/10/4 7/5/4
f 3/2/5 7/11/5 4/3/5
f 5/15/6 1/13/6 8/4/6
f 5/15/6 1/13/6 8/4/6